<?xml version="1.0" encoding="utf-8"?>
<!-- Generator: Adobe Illustrator 22.1.0, SVG Export Plug-In . SVG Version: 6.00 Build 0)  -->
<svg version="1.1" xmlns="http://www.w3.org/2000/svg" xmlns:xlink="http://www.w3.org/1999/xlink" x="0px" y="0px"
	 viewBox="0 0 600 600" style="enable-background:new 0 0 600 600;" xml:space="preserve">
<style type="text/css">
	.st0{fill:#333333;}
	.st1{fill:#FFFFFF;}
</style>
<g id="图层_1">
	<path class="st0" d="M469.5,599.5h-340c-71.5,0-130-58.5-130-130v-340c0-71.5,58.5-130,130-130h340c71.5,0,130,58.5,130,130v340
		C599.5,541,541,599.5,469.5,599.5z"/>
</g>
<g id="图层_3">
	<g>
		<path class="st1" d="M102.7,299.1l-7.9,134.6c-0.2,3.3-1.4,6-3.6,7.9c-2.2,2-5,2.9-8.3,2.6c-3.3-0.2-6-1.5-7.9-3.8s-3-5-3-8.1
			l15.5-256c0.4-3.3,1.8-6,4-7.9c2.2-2,4.7-3,7.6-3h124.7c3.1,0,5.7,1.1,7.9,3.3c2.2,2.2,3.3,4.9,3.3,7.9c0,3.1-1.1,5.8-3.3,8.1
			c-2.2,2.3-4.9,3.5-7.9,3.5H109.6l-5.6,88.3h110.5c3.1,0,5.8,1.1,8.1,3.3c2.3,2.2,3.5,4.9,3.5,7.9c0,3.1-1.2,5.7-3.5,7.9
			c-2.3,2.2-5,3.3-8.1,3.3H102.7z"/>
		<path class="st1" d="M314.1,221.6l-47.6,209.7c-0.9,3.1-2.6,5.5-5.3,7.1c-2.6,1.7-5.6,2.3-8.9,1.8c-3.3-0.9-5.7-2.6-7.3-5.3
			c-1.5-2.6-2-5.6-1.3-8.9l57.6-254.7c0.9-3.3,2.6-5.7,5.3-7.3c2.6-1.5,5.6-2,8.9-1.3c4.4,1.1,7.4,3.8,8.9,7.9l53.6,192.2
			l63.8-195.8c1.1-3.1,3.1-5.3,6-6.8c2.9-1.4,5.8-1.7,8.9-0.8c4.8,1.8,7.5,5.1,7.9,9.9l28.1,227.3v0.3c0.2,2.6,0.7,4.9,1.3,6.6
			c1.3,3.3,2.9,5.4,4.6,6.3c2,0.9,4.4,1.2,7.3,1c2,0,4-0.3,6-1c0.2-0.2,0.4-0.3,0.7-0.3c3.3-1.1,6.3-1,9.1,0.3
			c2.8,1.3,4.7,3.5,5.8,6.6c1.1,3.3,1,6.3-0.3,9.1c-1.3,2.8-3.5,4.8-6.6,6.1c-4,1.3-8.1,2.3-12.2,3c-7.3,0.7-14.3-0.8-21.2-4.3
			c-6.6-3.5-11.7-9.8-15.2-18.9c-1.3-3.3-2.1-7.2-2.3-11.6c0-0.2-0.1-0.3-0.2-0.3c-0.1,0-0.2-0.1-0.2-0.3L447.7,225l-59.2,181.9
			c-1.3,3.8-4,6.4-7.9,7.9c-3.3,0.7-6.3,0.2-9.1-1.3c-2.8-1.5-4.6-3.9-5.5-6.9L314.1,221.6z"/>
	</g>
	<g>
	</g>
	<g>
	</g>
	<g>
	</g>
	<g>
	</g>
	<g>
	</g>
	<g>
	</g>
	<g>
	</g>
	<g>
	</g>
	<g>
	</g>
	<g>
	</g>
	<g>
	</g>
</g>
</svg>
